name C:\Users\u0101727\Documents\MyRepositories\paper-ad\trackingsimulations_3d\Results\TrackSim\IK_c5.mot
datacolumns 32
datarows 17
range 3.45000000 3.70600000
endheader
time	pelvis_tilt	pelvis_list	pelvis_rotation	pelvis_tx	pelvis_ty	pelvis_tz	hip_flexion_l	hip_adduction_l	hip_rotation_l	hip_flexion_r	hip_adduction_r	hip_rotation_r	knee_angle_l	knee_angle_r	ankle_angle_l	ankle_angle_r	subtalar_angle_l	subtalar_angle_r	lumbar_extension	lumbar_bending	lumbar_rotation	arm_flex_l	arm_add_l	arm_rot_l	arm_flex_r	arm_add_r	arm_rot_r	elbow_flex_l	elbow_flex_r	pro_sup_l	pro_sup_r	
          3.45000000	         -2.16714664	          4.37998641	          4.40347598	         -0.50657992	          0.94269333	         -0.23007596	         15.03753071	          9.18309522	          3.46003904	         13.64920879	         -1.81649526	         -2.18045813	        -22.12743448	        -65.10910983	          5.23174886	        -12.90360003	          5.74149256	        -13.56340387	         -4.52049325	         -4.07373778	         -3.34073337	         -1.83215780	        -15.69996731	         17.87083611	         -4.80601892	        -16.91032473	         12.14118030	         21.28492599	         23.55384156	         86.51662706	         86.51662706	
          3.46600000	         -2.19469565	          4.16589934	          4.34634449	         -0.48827698	          0.94557908	         -0.23063327	         13.64018533	          8.93644573	          3.80521318	         16.83161738	         -1.89760357	         -2.03303728	        -21.98066386	        -66.37094195	          6.87632256	        -10.75613680	          5.94316317	        -12.83708651	         -4.69854491	         -3.92557413	         -3.82855100	         -1.63260531	        -15.90510552	         17.29444547	         -5.00381552	        -16.82673540	         12.39556745	         22.62563584	         23.05117544	         86.51662706	         86.51662706	
          3.48200000	         -2.17276104	          3.88270784	          4.28347724	         -0.46988508	          0.94825180	         -0.23112950	         12.12891652	          8.59950900	          4.12908125	         19.73950422	         -1.89989564	         -1.94976572	        -21.63863972	        -66.65310820	          8.04243215	         -8.84940306	          6.01223415	        -11.87153105	         -4.88973138	         -3.67301263	         -4.29217339	         -1.42388830	        -16.08845956	         16.78541658	         -5.27471466	        -16.76424150	         12.44527047	         23.94045550	         22.62689950	         86.51662706	         86.51662706	
          3.49800000	         -2.11573765	          3.51565552	          4.32512705	         -0.45138479	          0.95057873	         -0.23173588	         10.55803960	          8.20303236	          4.56547184	         22.31455769	         -1.83131178	         -2.03415996	        -21.18625328	        -65.94611116	          8.76198731	         -7.17026980	          5.85119822	        -10.91509180	         -5.08620753	         -3.29354179	         -4.82519672	         -1.19987828	        -16.25407074	         16.38304917	         -5.63863080	        -16.72169434	         12.20127674	         25.21672323	         22.32775946	         86.51662706	         86.51662706	
          3.51400000	         -2.03650560	          3.10174553	          4.43929501	         -0.43275086	          0.95244374	         -0.23238375	          8.94535780	          7.76251399	          5.05962663	         24.54566247	         -1.73567494	         -2.25596829	        -20.66109609	        -64.30676806	          9.21658862	         -5.57443679	          5.56352046	        -10.19189666	         -5.27798678	         -2.83897558	         -5.38907961	         -0.96602790	        -16.42127780	         16.07915825	         -6.07254585	        -16.68343761	         11.70186622	         26.45985848	         22.11805899	         86.51662706	         86.51662706	
          3.53000000	         -1.94062800	          2.68220887	          4.58152922	         -0.41396252	          0.95376213	         -0.23297249	          7.29412420	          7.28879134	          5.52043034	         26.42646872	         -1.64233303	         -2.56489210	        -20.08915878	        -61.79951818	          9.59040629	         -3.93836537	          5.29713673	         -9.92008465	         -5.46434329	         -2.36831357	         -5.94130322	         -0.72895521	        -16.60674405	         15.84782080	         -6.53305841	        -16.63256271	         11.04598459	         27.66744585	         21.93193598	         86.51662706	         86.51662706	
          3.54600000	         -1.82784222	          2.29642923	          4.72461499	         -0.39498598	          0.95449129	         -0.23344855	          5.58852622	          6.80238413	          5.88400694	         27.94116769	         -1.58014929	         -2.91618513	        -19.46367907	        -58.49238312	          9.97620243	         -2.34403507	          5.15638920	        -10.05770595	         -5.65031881	         -1.93285292	         -6.46202037	         -0.49495774	        -16.81589587	         15.66993937	         -6.98153411	        -16.55798154	         10.33159190	         28.81880481	         21.71306272	         86.51662706	         86.51662706	
          3.56200000	         -1.69749250	          1.97402200	          4.86778587	         -0.37579328	          0.95462545	         -0.23382101	          3.81442470	          6.33082838	          6.14373753	         29.08317946	         -1.58036201	         -3.29182449	        -18.77261913	        -54.49152744	         10.39002127	         -1.18779593	          5.17386666	        -10.27605424	         -5.84180399	         -1.56641320	         -6.95738005	         -0.26514692	        -17.04289180	         15.53943284	         -7.39275143	        -16.45664947	          9.63332943	         29.87887061	         21.43184228	         86.51662706	         86.51662706	
          3.57800000	         -1.55767719	          1.72861811	          5.02163091	         -0.35637748	          0.95417927	         -0.23412485	          1.98209768	          5.89762757	          6.33370276	         29.87287800	         -1.66371382	         -3.71948268	        -18.02403732	        -49.90864130	         10.81278017	         -0.86157344	          5.32437733	        -10.38057509	         -6.03469383	         -1.28234876	         -7.43772224	         -0.03399653	        -17.27370147	         15.46062980	         -7.75243152	        -16.33149881	          9.00499310	         30.80820551	         21.07464099	         86.51662706	         86.51662706	
          3.59400000	         -1.41858247	          1.56779372	          5.18280290	         -0.33674340	          0.95318397	         -0.23437433	          0.11571331	          5.52489235	          6.50115029	         30.35210995	         -1.83025027	         -4.21078845	        -17.24374450	        -44.86603974	         11.21100962	         -1.22745344	          5.54338935	        -10.06733767	         -6.22189229	         -1.08781313	         -7.89179153	          0.20939172	        -17.49094205	         15.44143027	         -8.05210416	        -16.18788834	          8.48702314	         31.57033703	         20.63157038	         86.51662706	         86.51662706	
          3.61000000	         -1.28906176	          1.48683727	          5.34337200	         -0.31689027	          0.95168394	         -0.23455899	         -1.75304418	          5.22019962	          6.69425855	         30.56810807	         -2.05250724	         -4.77756464	        -16.47324840	        -39.49089303	         11.55860259	         -1.58344102	          5.76631643	         -9.30339379	         -6.39494050	         -0.97798118	         -8.29669460	          0.47726147	        -17.67708677	         15.49045912	         -8.29001810	        -16.03148415	          8.11006529	         32.13252173	         20.09388508	         86.51662706	         86.51662706	
          3.62600000	         -1.17751255	          1.47650864	          5.51675349	         -0.29680929	          0.94974740	         -0.23469361	         -3.58622182	          4.98447557	          6.97552754	         30.56214429	         -2.32078481	         -5.47098777	        -15.76575257	        -33.87786790	         11.82931721	         -1.35531003	          5.92852326	         -8.02095142	         -6.54323519	         -0.94185130	         -8.64671215	          0.77943959	        -17.81732635	         15.61834770	         -8.47082589	        -15.86594336	          7.89735999	         32.46931063	         19.45177586	         86.51662706	         86.51662706	
          3.64200000	         -1.08548427	          1.51955320	          5.71821327	         -0.27648014	          0.94746805	         -0.23478428	         -5.35357411	          4.79877510	          7.34071885	         30.38118696	         -2.62642777	         -6.35072478	        -15.17050989	        -28.17239377	         12.00944348	         -0.76399984	          6.02666404	         -6.17832474	         -6.66132341	         -0.95891982	         -8.94653329	          1.11544836	        -17.90318117	         15.83474319	         -8.59906846	        -15.69379836	          7.86367847	         32.56875429	         18.70323701	         86.51662706	         86.51662706	
          3.65800000	         -1.00674319	          1.59327152	          5.93437338	         -0.25584863	          0.94493849	         -0.23477297	         -7.03998446	          4.62873253	          7.70562708	         30.08759432	         -2.92620206	         -7.41659171	        -14.72570289	        -22.66633307	         12.10291359	         -0.14112178	          6.12318516	         -3.95528841	         -6.74795380	         -1.00637293	         -9.18469433	          1.46774795	        -17.93455376	         16.13953311	         -8.68072331	        -15.51646026	          8.01435798	         32.43636491	         17.85809472	         86.51662706	         86.51662706	
          3.67400000	         -0.93039670	          1.67766445	          6.14546081	         -0.23485361	          0.94224524	         -0.23459124	         -8.63043306	          4.44755557	          8.00670230	         29.77110128	         -3.17466071	         -8.60946549	        -14.47906844	        -17.83358883	         12.11306275	          0.38664305	          6.27336320	         -1.63075479	         -6.80698084	         -1.06447627	         -9.35334498	          1.80700410	        -17.91777352	         16.51988315	         -8.72140962	        -15.33600597	          8.34580243	         32.09683214	         16.94067152	         86.51662706	         86.51662706	
          3.69000000	         -0.84765908	          1.75054267	          6.35901969	         -0.21344836	          0.93948096	         -0.23422772	        -10.09561963	          4.22369084	          8.16525313	         29.50625178	         -3.34555890	         -9.84436657	        -14.49431151	        -14.10249405	         12.04452091	          0.94453205	          6.56412547	          0.47712419	         -6.84068615	         -1.10575682	         -9.47924160	          2.09618888	        -17.85979458	         16.95320477	         -8.72702889	        -15.15841973	          8.84144352	         31.59045653	         15.99061421	         86.51662706	         86.51662706	
          3.70600000	         -0.74915629	          1.80993410	          6.61566634	         -0.19156902	          0.93674378	         -0.23375170	        -11.41331855	          3.94726624	          8.17498245	         29.29554889	         -3.45089127	        -10.99479166	        -14.82488051	        -11.64114189	         11.87385282	          1.50772397	          7.02897732	          1.90234862	         -6.84964382	         -1.11933072	         -9.62428836	          2.29268309	        -17.76648942	         17.40608624	         -8.71327803	        -14.99082386	          9.47265893	         30.96184737	         15.05832847	         86.51662706	         86.51662706	
